<?xml version="1.0" encoding="utf-8"?>
<!-- Generator: Adobe Illustrator 25.0.1, SVG Export Plug-In . SVG Version: 6.00 Build 0)  -->
<svg version="1.1" id="Layer_1" xmlns="http://www.w3.org/2000/svg" xmlns:xlink="http://www.w3.org/1999/xlink" x="0px" y="0px"
	 viewBox="0 0 1200 1200" style="enable-background:new 0 0 1200 1200;" xml:space="preserve">
<style type="text/css">
	.st0{fill:#CEBBAB;}
	.st1{fill:#F1AE75;}
	.st2{opacity:0.6;enable-background:new    ;}
	.st3{fill:#FFFFFF;}
	.st4{opacity:0.2;enable-background:new    ;}
	.st5{fill:#563222;}
	.st6{fill:#371A45;}
	.st7{fill-rule:evenodd;clip-rule:evenodd;fill:#E42437;}
	.st8{fill-rule:evenodd;clip-rule:evenodd;fill:#FFFFFF;}
	.st9{fill-rule:evenodd;clip-rule:evenodd;fill:#371A45;}
	.st10{fill:#47ABE0;}
</style>
<g>
	<g>
		<g>
			<g>
				<g>
					<path class="st0" d="M842.9,910.4c-32.7,40.5-108.3,43.8-108.3,43.8s-361.2,28.3-472.8,11c-88.5-13.8-113.7-85.9-104.4-130
						c0.5-2.6,1.2-5.2,2-7.6c2.7-8.1,6.7-14.9,11.8-19.7c12-11.1,24.8-11.5,35.4-8.5h0c0.3,0.1,0.6,0.2,0.9,0.3
						c0.2,0.1,0.4,0.1,0.6,0.2c12.6,4,21.6,12.6,21.6,12.6c0.1-0.2,0.1-0.4,0.2-0.6c0.1-0.3,0.2-0.6,0.3-0.9
						c1.1-3.3,2.9-7.2,5.4-11.4c7-12.3,18.8-27.8,31.3-42.3c10.9-12.7,22.3-24.5,31.4-32.5c6.1-5.4,11.8-14,16.8-23.8
						c11.4-22.2,19.4-50.5,22.3-61.3c0.8-2.9,1.2-4.5,1.2-4.5L788.3,617l-2.9,115.2l-2.1,84.2l-0.3,12.9c0,0,41.8-26,61.7-16.3
						C864.7,822.7,875.6,869.9,842.9,910.4z"/>
				</g>
			</g>
			<g>
				<g>
					<path class="st1" d="M474.7,779.4c0,0-5,99.9,34.9,107.1h27.6l22,20.2l2.5,30.1l49.3-0.7L599,910l7.3-23.5l16.6-16.6l35.7,4
						l27.7-64.5l-51.5-24.8l-81.3-5.9L474.7,779.4z"/>
				</g>
			</g>
			<g class="st2">
				<g>
					<path class="st3" d="M341.8,637c0,0-1.8,74.7-36.4,106.8c-34.6,32.2-68,60.7-68,60.7s-0.7-1.9-1.7-4.9
						c7-12.3,18.8-27.8,31.3-42.3c10.9-12.7,22.3-24.5,31.4-32.5c6.1-5.4,11.8-14,16.8-23.8c11.4-22.2,19.4-50.5,22.3-61.3
						C340.2,637.9,341.8,637,341.8,637z"/>
				</g>
			</g>
			<g class="st2">
				<g>
					<path class="st3" d="M260.8,875.5c0,0-38-52.8-66.5-59.5c-12-2.8-25.4,4.7-36.8,14.3c0.5-2.6,1.2-5.2,2-7.6
						c2.7-8.1,6.7-14.9,11.8-19.7c12-11.1,24.8-11.5,35.4-8.5h0c0.3,0.1,0.6,0.2,0.9,0.3c0.2,0.1,0.4,0.1,0.6,0.2
						c12.6,4,21.6,12.6,21.6,12.6c0.1-0.2,0.1-0.4,0.2-0.6C263,836.3,260.8,875.5,260.8,875.5z"/>
				</g>
			</g>
			<g class="st4">
				<g>
					<g>
						<path class="st5" d="M208.2,799.9c-0.5-0.2-1-0.3-1.5-0.5c0,0,0,0,0,0c0.3,0.1,0.6,0.2,0.9,0.3
							C207.8,799.8,208,799.8,208.2,799.9z"/>
					</g>
				</g>
				<g>
					<g>
						<path class="st6" d="M207.9,800.9c-0.5-0.2-1-0.3-1.5-0.4l-0.8-0.2v-2.1l2.2,0.6c0.2,0.1,0.4,0.1,0.7,0.2L207.9,800.9z"/>
					</g>
				</g>
			</g>
			<g class="st4">
				<g>
					<path class="st6" d="M842.9,910.4c-32.7,40.5-108.3,43.8-108.3,43.8s-361.2,28.3-472.8,11c-93.8-14.6-116.5-94.7-102.3-137.6
						c4.2,18.5,5.3,53.4,25.1,69.8c33.3,27.5,83,5.3,73.7-36.9c-4.1-18.4-12.2-37.1-28-49.5c4.2-12.7,13.7-24.4,13.7-24.4l0,0
						c0,0,64.7,33.1,61.6,109.6c-0.7,16.9,11.7,31.7,28.5,34.2c12.4,1.9,26.1,3.3,36.3,2.8c0,0-65.8-75.3-42.6-205.8
						c0,0,14.7,223.7,251.4,197.1c108.2-12.1,169.5-59.9,204.2-108.1l-0.3,12.9c0,0,41.8-26,61.7-16.3
						C864.7,822.7,875.6,869.9,842.9,910.4z"/>
				</g>
			</g>
			<g>
				<g>
					<path class="st0" d="M562.7,926.1c0.1,5.3-0.6,10.8-1.8,16.1c-7.5,31.8-113,63.7-193.5-61.7c-42-65.5-44.3-130.7-36.8-178.2
						c6.9-43.5,21.8-72,21.8-72l128,155.3c-2.1,22.1-0.3,41.9,2.8,58.1c5.4,28.1,14.7,45.4,14.7,45.4c25.4-6.9,42.3-3.2,52.4,5.9
						C558.8,902.6,562.6,914,562.7,926.1z"/>
				</g>
			</g>
			<g class="st2">
				<g>
					<path class="st3" d="M562.7,926.1c-9.6-26.5-48.5-25.7-64.8-24.1c-5,0.5-9.8-1.8-12.5-6c-14.5-22.9-3.9-51.2-2.3-52.2
						c5.4,28.1,14.7,45.4,14.7,45.4c25.4-6.9,42.3-3.2,52.4,5.9C558.8,902.6,562.6,914,562.7,926.1z"/>
				</g>
			</g>
			<g class="st4">
				<g>
					<path class="st6" d="M560.9,941.1c-7.5,31.8-113,63.7-193.5-61.7c-42-65.5-44.3-130.7-36.8-178.2
						c5.2,59.3,43.6,188.2,119.5,221.9c57.7,25.6,99.1-2.2,100.2-29.3C562.5,904.8,565,923.6,560.9,941.1z"/>
				</g>
			</g>
			<g>
				<g>
					<path class="st6" d="M374.4,978.5c-46.4,0-87-1.6-113.8-5.8c-77-12-100.9-64.2-107.6-86.1c-10.1-33-4.7-67.6,13.1-84.1
						c21-19.5,45.4-11.9,60.5-2c12.4-24.2,45.6-62.7,66.7-81.4c18-15.9,33.5-67.3,37.9-85.7c0.8-3.3,3.7-5.6,7-5.8L788,609.5
						c2.1-0.1,4.1,0.7,5.6,2.2c1.5,1.5,2.3,3.5,2.3,5.6l-5,199.1c15.1-7.7,40.7-18,57.1-10.1c10.2,5,18,16.5,21.4,31.7
						c5.7,25.3-2.1,54.2-20.7,77.3c-34,42.2-108.9,46.4-113.8,46.6C722.5,962.8,520,978.5,374.4,978.5z M195.9,805.5
						c-6.4,0-13.1,2.1-19.5,8c-11.6,10.7-18.3,37.8-8.9,68.6c5.9,19.2,26.9,65,95.4,75.6c109.4,17,467.4-10.8,471-11
						c0.1,0,0.2,0,0.3,0c0.7,0,72.7-3.6,102.8-41c15.7-19.5,22.3-43.6,17.7-64.5c-2.3-10.4-7.4-18.6-13.3-21.4
						c-11.8-5.7-39.6,6.8-54.4,16c-2.4,1.5-5.3,1.5-7.7,0.1c-2.4-1.4-3.9-4-3.8-6.7l5.1-204.3l-436,17.6
						c-4.6,17.2-19.8,69-41.2,87.9c-25,22.1-61.6,66.8-66.3,84.1c-0.7,2.6-2.7,4.6-5.2,5.3c-2.6,0.7-5.3,0-7.2-1.8
						C223.8,817.3,211,805.5,195.9,805.5z"/>
				</g>
			</g>
			<g>
				<g>
					<path class="st0" d="M809.3,750.7c-1.9,35-11.4,74.4-35.4,113.8c-36.5,60-69.9,85-109.8,85c-31.9,0-55.8-7.7-62.8-27
						c-3.1-8.4-3.1-17.2-0.5-25.1c6.2-19.3,27.4-33.5,56.8-24.8c0,0,40.5-42.3,35.5-99.1l94.2-144.4
						C787.2,629.2,813.1,681.1,809.3,750.7z"/>
				</g>
			</g>
			<g class="st4">
				<g>
					<path class="st6" d="M809.3,750.7c-1.9,35-11.4,74.4-35.4,113.8c-36.5,60-69.9,85-109.8,85c-31.9,0-55.8-7.7-62.8-27
						c-3.1-8.4-3.1-17.2-0.5-25.1h0C709.2,950.2,776.4,834.3,809.3,750.7z"/>
				</g>
			</g>
			<g class="st4">
				<g>
					<path class="st6" d="M788.3,617l-2.9,115.2c-71.4,123.2-150.2,150-150.2,150c-128.8,24.1-263.6-114.5-320-181.3
						c14.4-28.1,23.5-65.8,23.5-65.8L788.3,617z"/>
				</g>
			</g>
			<g>
				<g>
					<g>
						<path class="st6" d="M501.7,894.7c-0.6,0.3-1.2,0.6-1.8,0.8c-3.1,1.2-6.5,0-8.2-2.6l-0.8-1.2c-0.8-1.3-1.4-2.2-2-3.3
							c-0.6-1.1-1.1-2.2-1.6-3.3c-1-2.2-1.8-4.4-2.5-6.7c-1.5-4.5-2.4-9.2-3.1-13.9c-0.7-4.7-1.2-9.4-1.3-14.1
							c-0.1-4.7,0-9.4,0.6-14.2c0.1-0.6,0.6-1.1,1.3-1c0.4,0,0.7,0.3,0.9,0.6l0,0c2.1,4.2,3.9,8.4,5.8,12.6c0.9,2.1,1.8,4.1,2.8,6.2
							c0.9,2.1,1.9,4.1,2.8,6.1c1.8,4,3.8,7.9,5.6,11.9c0.9,2,1.7,3.9,2.6,5.9l1.2,2.9c0.3,1,0.8,2,1,2.8l-9-3.9
							c0.7-0.1,1.5-0.2,2.2-0.3c4.2-0.4,7.9,2.8,8.3,7c0.3,3.3-1.5,6.2-4.3,7.5L501.7,894.7z"/>
					</g>
				</g>
				<g>
					<g>
						<path class="st6" d="M354.6,630.4c-4.4,11.4-7.9,23.4-10.8,35.4c-2.9,12-5.1,24.1-6.6,36.2c-3,24.3-3.1,48.8,0.1,72.9
							c1.5,12,4.1,23.9,7.3,35.6c3.2,11.7,7.5,23.1,12.5,34.2l3.9,8.2l4.3,8.1c1.4,2.7,3,5.3,4.6,7.9c1.6,2.6,3.1,5.2,4.8,7.8
							c6.7,10.2,14,20,21.9,29.3c16,18.2,34.7,34.1,56.2,44.4c10.7,5.1,22,8.8,33.6,10.7c2.9,0.3,5.8,0.9,8.7,1
							c1.5,0.1,2.9,0.2,4.4,0.3l4.4,0c5.8-0.2,11.6-0.6,17.2-1.8c5.6-1.2,11.1-2.9,16.1-5.3c5-2.4,9.5-5.5,12.7-9.1
							c0.9-0.9,1.4-1.8,2.1-2.7l0.7-1.4c0.1-0.2,0.3-0.5,0.4-0.7l0.2-0.7l0.2-0.7c0.1-0.2,0.2-0.4,0.2-0.8l0.4-2.1
							c0.2-1.4,0.5-2.8,0.6-4.1c0.7-5.5,0.6-11.1-0.4-16.3c-1.1-5.2-3.1-10-6.1-13.8c-3.1-3.8-7-6.7-11.8-8.4
							c-9.6-3.5-21.4-2.7-32.7,0l0,0c-4.1,1-8.1-1.6-9.1-5.6c-1-4.1,1.6-8.1,5.6-9.1l0,0c6.5-1.5,13.2-2.6,20.2-2.7
							c6.9-0.1,14.2,0.6,21.2,3.2c7,2.5,13.7,7.1,18.4,13.1c4.8,6,7.6,13.2,9.1,20.2c1.4,7.1,1.5,14.2,0.6,21.1
							c-0.2,1.7-0.5,3.4-0.8,5.1l-0.5,2.5c-0.1,0.4-0.2,0.9-0.4,1.5l-0.5,1.6l-0.5,1.6c-0.2,0.5-0.5,0.9-0.7,1.4
							c-0.5,0.9-1,1.9-1.5,2.8c-1.2,1.6-2.2,3.4-3.6,4.7c-5.2,5.8-11.2,9.7-17.5,12.7c-6.3,3-12.9,5.1-19.5,6.5
							c-6.7,1.4-13.4,2-20.1,2.2l-5,0c-1.7,0-3.3-0.2-5-0.3c-3.4-0.1-6.6-0.7-10-1.1c-13.2-2.1-25.9-6.3-37.8-11.9
							c-23.9-11.4-44.1-28.7-61.1-48.1c-8.4-9.8-16.1-20.2-23.1-30.9c-6.9-10.9-13.5-22-18.8-33.8c-5.4-11.7-10.3-23.8-13.8-36.2
							c-3.6-12.4-6.3-25.1-8-38c-3.2-25.7-2.1-51.8,2.7-77c2.4-12.6,5.8-25,10.1-37c2.1-6,4.5-12,7.2-17.8c2.6-5.8,5.5-11.5,8.9-17
							c0.7-1.2,2.3-1.6,3.5-0.8c1.1,0.6,1.5,1.9,1,3.1L354.6,630.4z"/>
					</g>
				</g>
			</g>
			<g>
				<g>
					<path class="st6" d="M664.1,957.1c-38.7,0-62.2-10.7-69.9-31.9c-6-16.6-2.3-34.9,9.7-47.6c12.4-13.2,30.8-18,51-13.4
						c8.7-10.6,34.5-45.9,30.6-89.9c-0.4-4.2,2.7-7.8,6.9-8.2c4.2-0.4,7.8,2.7,8.2,6.9c5.3,59.5-35.8,103.1-37.6,105
						c-2,2-4.9,2.8-7.6,2c-16.4-4.9-31.1-2-40.5,8c-8.1,8.6-10.6,20.9-6.5,32.1c6.6,18.2,33.9,22,55.7,22
						c37.7,0,68.6-24.3,103.3-81.4c35.8-58.9,37.5-117.6,32.6-156.5c-5.3-42.5-19.5-71.3-19.6-71.6c-1.9-3.7-0.3-8.3,3.4-10.1
						c3.7-1.9,8.3-0.3,10.1,3.4c0.6,1.2,15.2,31,21,75.8c5.3,41.4,3.6,104-34.6,166.8C743,929.8,707.2,957.1,664.1,957.1z"/>
				</g>
			</g>
			<g>
				<g>
					<path class="st6" d="M235.1,807.1c1.7,1.4,3,2.6,4.3,4c1.3,1.4,2.6,2.8,3.8,4.2c2.4,2.9,4.6,6,6.6,9.1
						c4.1,6.3,7.2,13.3,9.6,20.4c2.5,7.1,3.9,14.6,4.5,22.1c0.1,1.9,0.1,3.8,0.1,5.6c0,1.9-0.2,3.7-0.4,5.6l-0.3,2.8
						c-0.1,0.9-0.4,1.8-0.6,2.7c-0.4,1.8-0.8,3.6-1.3,5.3c-0.1,0.6-0.7,0.9-1.3,0.8c-0.4-0.1-0.8-0.5-0.8-0.9l0-0.1
						c-0.3-1.8-0.6-3.5-0.8-5.2l-0.4-2.6l-0.6-2.5c-0.4-1.7-0.7-3.3-1.1-5l-1.5-4.9c-2.2-6.4-4.8-12.5-8.1-18.3
						c-3.2-5.8-7-11.3-10.8-16.7c-1-1.3-1.9-2.7-2.9-4l-3-4l-3-3.9c-1-1.3-2-2.7-2.8-3.8l-0.4-0.6c-2.4-3.4-1.6-8.1,1.8-10.5
						C228.8,804.8,232.5,805,235.1,807.1z"/>
				</g>
			</g>
			<g>
				<g>
					<path class="st7" d="M331.5,662c0,0,107.7,157.8,294,186.8c9.6,1.5,19.4-1.3,26.7-7.9c31.5-28.5,119.3-115.1,146.7-219.8
						C798.9,621.1,578.9,579.9,331.5,662z"/>
				</g>
			</g>
			<g class="st2">
				<g>
					<path class="st8" d="M654.2,829c-7.2,6.5-17,9.4-26.7,7.9c-156.9-24.5-258-140.2-286-176.2c-3.3,1.1-6.6,2.1-9.9,3.2
						c0,0,107.7,157.8,294,186.8c9.6,1.5,19.4-1.3,26.7-7.9c31.5-28.5,119.3-115.1,146.7-219.8c0,0-0.7-0.1-2-0.3
						C765.9,721.3,684.3,801.8,654.2,829z"/>
				</g>
			</g>
			<g>
				<g>
					<path class="st6" d="M630.6,856.7c-2.1,0-4.2-0.2-6.3-0.5c-98-15.3-174-66.1-220.6-106c-50.4-43.2-77.3-82.3-78.5-84
						c-1.3-2-1.7-4.4-0.9-6.7c0.8-2.2,2.5-4,4.8-4.8c128.4-42.6,249.2-51.6,328.2-51.6c0.2,0,0.4,0,0.7,0
						c85.6,0.1,140,10.1,142.3,10.5c2.1,0.4,3.9,1.6,5,3.4c1.1,1.8,1.5,3.9,0.9,6c-27.5,105.1-113.4,191.3-149,223.5
						C649.9,853.1,640.5,856.7,630.6,856.7z M343.8,665.9c10.5,13.7,34.5,42.6,70.1,73.1c45,38.5,118.5,87.6,212.7,102.3
						c7.5,1.2,14.9-1,20.4-6c33.7-30.4,113.6-110.5,142.3-208C748.1,621.1,556.1,598.1,343.8,665.9z"/>
				</g>
			</g>
			<g>
				<g>
					<path class="st6" d="M337,656.6c9.7,7.5,19.9,14.9,30.2,22c10.3,7.1,20.8,14,31.4,20.6c21.2,13.3,43,25.7,65.5,36.9
						c22.4,11.1,45.6,21,69.4,28.8c12,3.8,24,7.3,36.4,9.7c12.3,2.5,24.8,4.2,37.4,4.9c-12.6-0.1-25.2-1.2-37.7-3.1
						c-12.5-1.8-24.9-4.7-37.1-7.9c-24.5-6.6-48.3-15.4-71.6-25.5c-23.3-10.1-45.9-21.6-68.1-34c-11.1-6.2-22-12.6-32.8-19.3
						c-10.8-6.7-21.4-13.5-32-21c-3.4-2.4-4.2-7.1-1.9-10.5c2.4-3.4,7.1-4.2,10.5-1.9c0.1,0.1,0.2,0.1,0.3,0.2L337,656.6z"/>
				</g>
			</g>
			<g class="st4">
				<g>
					<path class="st9" d="M381.9,719.9c0,0,193.6,109.9,383.9-18.8v-11.9l-22.9-8.7c0,0-185.9,98.8-370.6,11.7c0,0-8.2-3.8-6.2,0.2
						C368.1,696.4,381.9,719.9,381.9,719.9z"/>
				</g>
			</g>
			<g>
				<g>
					<path class="st6" d="M806.2,627c-4.6,7.8-9.4,14.9-14.4,22c-5,7.1-10.2,14.1-15.6,20.9c-10.8,13.6-22.3,26.5-34.9,38.5
						c-12.5,12-26,23-40.6,32.2c-7.3,4.5-14.9,8.7-22.8,12.2c-7.9,3.4-16.1,6.2-24.4,8.2c8.2-2.6,16-6,23.6-9.9
						c7.5-4,14.6-8.6,21.5-13.6c13.6-10.1,26-21.8,37.3-34.3c11.3-12.6,21.6-26,31.2-40c4.7-7,9.3-14.1,13.6-21.4
						c4.3-7.2,8.5-14.7,12.1-21.9l0.1-0.1c1.9-3.7,6.4-5.3,10.1-3.4c3.7,1.9,5.3,6.4,3.4,10.1C806.4,626.7,806.3,626.9,806.2,627z"
						/>
				</g>
			</g>
			<g>
				<g>
					<g>
						<path class="st0" d="M650.4,715.1c-131.2,33.1-378.7,24.3-407.6-230.5c-2.2-19.9-2.6-38.8-1.3-56.7c1.9-25.5,7-49,14.8-70.7
							c17.2-47.7,47.1-86.4,82.4-116.1c4.3-3.7,8.8-7.2,13.3-10.6c57.7-43.6,126.5-65,177-65.1c24.6,0,46.9,1.6,67,4.5
							c0.1,0,0.1,0,0.2,0c5.6,0.8,11.1,1.7,16.4,2.7c5.5,1,10.9,2.2,16,3.4c16.2,3.9,30.8,8.8,43.9,14.4
							c44.3,18.9,71.9,46.2,89.7,73.6c2.4,3.7,4.6,7.3,6.7,11c2.4,4.3,4.7,8.6,6.7,12.9c8.8,18.3,14,35.6,18,49.2
							c13.9,47.8,60.2,76.3,63.6,155.1C860.5,571,797.9,677.8,650.4,715.1z"/>
					</g>
				</g>
				<g class="st4">
					<g>
						<path class="st6" d="M857.2,492.2c-3.4-78.8-49.7-107.3-63.6-155.1c-4.9-16.8-11.7-39.1-24.7-62.1c3.5,36.8,2.3,63.8,5,83.9
							c4.1,30.3,59.4,79.8,35.4,152.6c-33.2,100.6-257.2,217.4-432.7,85.3c-33.4-25.2-56.9-54.8-71.9-86.7
							c-11.8-24.9,0.4-53.9,25.9-64.4c64.4-26.6,46.1-171.8,46.1-171.8l-34.8,64.4c-22,50.8-42.2,58.1-57.7,51
							c5.3-59,30.6-116.1,67.9-158.7c-41,31-76.4,73.1-95.7,126.7c0,0,0,0,0,0c0,0,0,0.1,0,0.1c-0.5,1.5-1,3-1.6,4.6
							c-0.4,1.3-0.9,2.6-1.3,4c-0.4,1.2-0.8,2.5-1.1,3.8c-0.5,1.6-1,3.3-1.5,4.9c-0.3,1.2-0.6,2.4-1,3.6c-0.5,1.7-0.9,3.5-1.4,5.3
							c-0.3,1.2-0.6,2.4-0.8,3.6c-0.4,1.8-0.8,3.6-1.2,5.4c-0.3,1.3-0.5,2.5-0.7,3.8c-0.3,1.8-0.7,3.6-1,5.4c-0.2,1.3-0.4,2.7-0.6,4
							c-0.3,1.8-0.5,3.5-0.8,5.3c-0.2,1.4-0.4,2.8-0.5,4.2c-0.2,1.8-0.4,3.5-0.6,5.3c-0.1,1.4-0.3,2.9-0.4,4.4
							c-0.1,1.1-0.2,2.1-0.3,3.2c0,0,0,0,0,0c-1.3,18-1,36.8,1.3,56.7c29,254.8,276.4,263.6,407.6,230.5
							C797.9,677.8,860.5,571,857.2,492.2z"/>
					</g>
				</g>
				<g class="st2">
					<g>
						<path class="st3" d="M664.4,199.9c-2.6-0.7-151.1-42.7-274.8,22.1c-22.4,11.7-38.9,17.5-50.8,19.2c4.3-3.7,8.8-7.2,13.3-10.6
							c57.7-43.6,126.5-65,177-65.1c24.6,0,46.9,1.6,67,4.5c0,0,0,0,0,0s0.1,0,0.2,0c1,0.1,7.3,0.5,16.4,2.7
							C626.1,176,646,183.4,664.4,199.9z"/>
					</g>
				</g>
				<g>
					<g>
						<path class="st6" d="M536.9,736.6c-66.4,0-136.6-14.3-192.9-53.3c-62-42.9-98.6-109.5-108.6-197.9
							c-9.5-83.8,13.8-159.8,67.5-220c66-73.9,163.5-107.6,226.2-107.6l0,0c0,0,0,0,0.1,0c93,0,163.8,22.6,210.5,67
							c40.5,38.6,54,85.1,61.3,110.1c4.9,16.8,14.3,31.5,24.3,47.1c17.5,27.4,37.4,58.4,39.6,109.8c1.9,43.9-15.8,92.1-48.5,132.1
							c-38.4,47-95.1,81-164,98.4C618.1,731.1,578.2,736.6,536.9,736.6z M529,173c-59.4,0-152.1,32.1-215,102.6
							c-50.7,56.8-72.8,128.8-63.7,208.2c9.5,83.8,43.9,146.8,102.2,187.1c87.2,60.3,210.1,58.6,296,36.9
							c65.7-16.6,119.7-48.9,156-93.3c30.4-37.2,46.8-81.6,45.1-121.9c-2-47.3-19.9-75.3-37.2-102.3c-10.6-16.5-20.6-32.2-26.1-51
							C771.9,289.5,738,173,529,173C529,173,529,173,529,173L529,173z M529,165.4L529,165.4L529,165.4z"/>
					</g>
				</g>
				<g>
					<g>
						<path class="st1" d="M798.4,674.3c-33.5,28.3-56.2,1.5-56.2,1.5s-43.6,26-99.7,39.2c-56.1,13.1-124.7,11.8-124.7,11.8
							s-6.4,46.8-69.4,31.2c-47.9-11.8-55-59.3-51.9-99.3c2.5-32.2,11.7-59.6,11.7-59.6c12.7-31.8,61.7-91.1,185-120.7
							c123.3-29.6,188.1,42,188.1,42c12.4,15.2,25.5,40.6,32.5,67.3C822.3,620.3,821.4,654.8,798.4,674.3z"/>
					</g>
				</g>
				<g class="st4">
					<g>
						<path class="st6" d="M722.4,577.5c0,0-13.2-25.8-32.4-32.3c0,0-7.9,57.9-60,44.5c0,0-37,46.1-67.3-6.7
							c0,0-21.8,20.4-29.7,53.3c0,0,57.6,38.1,102.2-20.8C635.3,615.5,707.8,635.8,722.4,577.5z"/>
					</g>
				</g>
				<g class="st4">
					<g>
						<path class="st6" d="M798.4,674.3c-33.5,28.3-56.2,1.5-56.2,1.5s-43.6,26-99.7,39.2c-56.1,13.1-124.7,11.8-124.7,11.8
							s-6.4,46.8-69.4,31.2c-47.9-11.8-55-59.3-51.9-99.3c7.2,21.4,21.2,44.6,48.5,49.6c53.2,9.7,74.9-31.8,77.1-41.7
							c0,0,53,49,121.8,25.5c68.8-23.5,93-70.4,93-70.4s51.1,57.9,76.9-34C822.3,620.3,821.4,654.8,798.4,674.3z"/>
					</g>
				</g>
				<g>
					<g>
						<path class="st6" d="M410.6,601.9c-1.2,22.8-5.5,44.2-6.4,65.9c-0.5,10.8-0.5,21.6,1.2,32c1.7,10.4,5,20.4,10.3,28.8
							c5.4,8.4,12.8,15.2,21.8,19.5l3.5,1.5c1.2,0.5,2.3,1,3.5,1.3l3.6,1.1l1.8,0.6c0.6,0.2,1.3,0.3,1.9,0.4
							c5.2,1.3,10.4,2,15.5,2.4c10.2,0.7,20.3-0.8,28-5.7c3.9-2.4,7.1-5.7,9.7-9.5c1.3-1.9,2.4-4,3.3-6.2c0.5-1.1,0.8-2.2,1.2-3.3
							c0.2-0.6,0.3-1.1,0.4-1.6l0.2-0.8l0.1-0.5l0.1-0.3c0.7-3.7,4-6.2,7.6-6.2c19,0.2,38.4-0.6,57.4-2.1
							c19.1-1.5,38.2-3.9,56.8-7.6c9.3-1.9,18.5-4.2,27.6-6.9c9.1-2.8,18.1-5.8,27-9.2c8.9-3.4,17.7-7.1,26.3-11.1
							c8.6-4,17.3-8.4,25.2-12.9c3.2-1.8,7.1-1.1,9.5,1.4l0.2,0.2c0.3,0.3,1.1,1.1,1.8,1.7c0.7,0.6,1.5,1.2,2.3,1.8
							c1.6,1.1,3.3,2.1,5,2.9c3.5,1.6,7.2,2.4,10.9,2.4c7.5,0.2,15.2-3.3,22-8.4c3.5-2.6,6.6-5.3,9.2-8.5c2.5-3.2,4.8-6.7,6.5-10.5
							c1.7-3.9,3.1-7.9,3.9-12.1c0.3-1,0.4-2.1,0.6-3.2c0.2-1.1,0.4-2.2,0.5-3.2c0.2-2.2,0.5-4.4,0.5-6.6c0.4-8.9-0.5-18-2.2-27
							c-1.7-9-4.2-18-7.5-26.6c-1.7-4.3-3.6-8.5-5.5-12.7l-5.7-12.6c-3.9-8.4-7.6-16.7-10.7-26.2l0-0.1c-0.5-1.4,0.3-2.9,1.7-3.4
							c0.8-0.3,1.6-0.1,2.2,0.3c9,5.5,15.4,13.6,20.5,22.2c5.2,8.6,9,17.9,12.1,27.4c6.3,18.9,11.1,38.6,10.3,59.4
							c0,2.6-0.4,5.2-0.6,7.8c-0.2,1.3-0.4,2.6-0.6,3.9c-0.2,1.3-0.4,2.6-0.7,3.9c-1,5.2-2.7,10.3-4.9,15.3c-2.2,5-5.2,9.6-8.6,13.9
							c-3.5,4.3-7.7,8-11.9,11c-2,1.7-4.4,3-6.8,4.4c-2.2,1.5-4.9,2.5-7.5,3.6c-1.2,0.6-2.7,0.9-4,1.4c-1.4,0.4-2.7,0.9-4.1,1.1
							l-4.3,0.6c-0.7,0.1-1.4,0.2-2.2,0.2l-2.2,0c-5.9,0-11.8-1.3-17.1-3.8c-2.6-1.2-5.1-2.6-7.5-4.3c-1.2-0.8-2.3-1.7-3.4-2.7
							c-1.1-1-2.1-1.8-3.4-3.3l9.6,1.6c-8.9,5.1-17.6,9.5-26.6,13.7c-9,4.2-18.1,8-27.3,11.5c-9.2,3.5-18.6,6.7-28.1,9.5
							c-9.5,2.8-19.1,5.2-28.9,7.2c-19.4,3.9-39,6.3-58.6,7.9c-19.6,1.5-39.1,2.3-58.9,2.1l7.6-6.5c-0.1,0.7-0.2,1.1-0.3,1.5
							l-0.3,1.3c-0.2,0.8-0.4,1.6-0.7,2.4c-0.5,1.6-1,3.2-1.7,4.7c-1.3,3-2.8,6-4.6,8.8c-3.7,5.5-8.6,10.4-14.3,14
							c-5.7,3.6-12,5.8-18.3,7c-6.3,1.2-12.6,1.4-18.7,1c-6.1-0.4-12.1-1.3-17.9-2.7c-0.7-0.2-1.5-0.3-2.2-0.5l-2.2-0.7l-4.4-1.3
							c-1.5-0.4-2.9-1.1-4.4-1.7l-4.3-1.8c-11.4-5.4-21.2-14.4-28-25c-0.9-1.3-1.6-2.7-2.4-4.1c-0.7-1.4-1.6-2.7-2.2-4.1
							c-1.2-2.8-2.6-5.6-3.5-8.6l-1.5-4.3l-1.2-4.4c-0.9-2.9-1.3-5.9-2-8.8c-2.2-11.8-2.8-23.7-2.4-35.4c0.4-11.7,2.3-23.3,4.9-34.5
							c2.8-11.2,6.7-22.2,13-32.3c0.8-1.2,2.4-1.6,3.6-0.8c0.8,0.5,1.3,1.4,1.2,2.3L410.6,601.9z"/>
					</g>
				</g>
				<g>
					<g>
						<path class="st6" d="M516.4,737.7c-3.8,0-6.9-3.1-6.9-6.9c0-2.9,0.1-71.3,16.9-98.6c1.9-3.1,6-4.2,9.2-2.5
							c2.5,1.4,62.8,33.1,93.8-17.9c1.7-2.8,5.1-4,8.1-3c2.4,0.8,58.3,18.6,76.1-31c0.9-2.5,3.2-4.3,5.8-4.6c2.6-0.3,5.2,1,6.6,3.3
							c1.1,1.7,26.3,43.2,25.1,102.3c-0.1,3.8-3.2,6.8-6.9,6.8c0,0-0.1,0-0.1,0c-3.8-0.1-6.9-3.2-6.8-7.1
							c0.7-36.9-9.8-66.8-16.9-82.6c-10.6,17.7-27.5,27.9-49.7,30c-13.5,1.2-25.7-0.9-32.4-2.5c-15.8,22.9-39.3,33.4-68.3,30.6
							c-14.7-1.4-27.4-6-34.7-9.1c-9.8,22.8-12,68.7-12,85.8C523.4,734.6,520.3,737.7,516.4,737.7
							C516.4,737.7,516.4,737.7,516.4,737.7z"/>
					</g>
				</g>
				<g>
					<g>
						<path class="st6" d="M497.4,592.6c-42.2,0-76.5-34.3-76.5-76.5c0-42.2,34.3-76.5,76.5-76.5s76.5,34.3,76.5,76.5
							C573.9,558.3,539.6,592.6,497.4,592.6z M497.4,454.7c-33.9,0-61.4,27.5-61.4,61.4s27.5,61.4,61.4,61.4s61.4-27.5,61.4-61.4
							S531.3,454.7,497.4,454.7z"/>
					</g>
				</g>
				<g>
					<g>
						<path class="st6" d="M697.2,529c-41.5,0-75.3-33.8-75.3-75.3c0-41.5,33.8-75.3,75.3-75.3c41.5,0,75.3,33.8,75.3,75.3
							C772.5,495.2,738.7,529,697.2,529z M697.2,393.5c-33.2,0-60.2,27-60.2,60.2s27,60.2,60.2,60.2c33.2,0,60.2-27,60.2-60.2
							S730.4,393.5,697.2,393.5z"/>
					</g>
				</g>
				<g>
					<g>
						<path class="st6" d="M557.8,492.1c-2.2,0-4.4-1-5.9-2.8c-2.6-3.3-2.1-8,1.2-10.6c1.7-1.3,41.8-32.9,77-25.8
							c4.1,0.8,6.7,4.8,5.9,8.9c-0.8,4.1-4.8,6.7-8.9,5.9c-28.3-5.7-64.2,22.5-64.6,22.8C561.1,491.6,559.4,492.1,557.8,492.1z"/>
					</g>
				</g>
				<g>
					<g>
						<path class="st6" d="M596.3,677.2c7.8-1.1,15.5-2,23-3.3c7.5-1.3,15-2.8,22.3-4.7c3.7-0.9,7.2-2.1,10.9-3.2
							c1.8-0.6,3.5-1.3,5.3-1.9l2.7-1l2.6-1.1c7.2-2.7,13.7-6.5,20.8-10.1l0.1-0.1c1-0.5,2.2-0.1,2.7,0.9c0.4,0.8,0.2,1.6-0.3,2.2
							c-5.4,6.1-11.7,11.7-18.9,15.9l-2.7,1.6l-2.8,1.4c-1.9,0.9-3.7,1.9-5.6,2.7c-3.9,1.5-7.7,3.1-11.7,4.1
							c-8,2.3-16.2,3.6-24.5,3.8c-2.1,0-4.1,0-6.2-0.1c-2.1-0.1-4.1-0.3-6.2-0.5c-4.1-0.5-8.1-1.3-12.1-2.7
							c-1.1-0.4-1.6-1.5-1.2-2.6c0.3-0.7,0.9-1.2,1.6-1.3L596.3,677.2z"/>
					</g>
				</g>
				<g>
					<g>
						<g>
							<path class="st3" d="M694.4,611.1c0,0-9.7-36.8-0.3-42c9.4-5.1,25.8,11.1,25.8,11.1S710.7,606.6,694.4,611.1z"/>
						</g>
					</g>
					<g>
						<g>
							<path class="st6" d="M693.7,612.4l-0.3-1c-1-3.8-9.6-37.7,0.2-43.1c9.9-5.4,26.3,10.6,27,11.3l0.4,0.4l-0.2,0.6
								c-0.4,1.1-9.6,26.8-26.2,31.5L693.7,612.4z M698.3,569.2c-1.3,0-2.6,0.3-3.7,0.9c-6.9,3.8-2.2,29.1,0.5,39.8
								c13.7-4.7,22.2-25.5,23.6-29.3C716.5,578.4,706.1,569.2,698.3,569.2z"/>
						</g>
					</g>
				</g>
				<g>
					<g>
						<path class="st6" d="M694.4,618.1c-1.2,0-2.4-0.3-3.4-0.9c-1.6-0.9-2.8-2.5-3.3-4.3c-4.1-15.7-9.2-43.1,3.1-49.8
							c13.2-7.2,30.6,8.9,34,12.2c1.9,1.9,2.6,4.7,1.7,7.2c-1.1,3-10.9,29.8-30.2,35.3C695.7,618,695,618.1,694.4,618.1z
							 M697.8,575.1c-1.6,3.1-0.9,13.9,1.3,25.5c5.5-4.9,10-12.9,12.5-18.4C706.2,577.7,700.1,574.6,697.8,575.1z"/>
					</g>
				</g>
				<g>
					<g>
						<g>
							<path class="st3" d="M533,636.2c0,0,16-31.5,30.8-30c14.8,1.5,9,40.6,9,40.6S553.5,646.3,533,636.2z"/>
						</g>
					</g>
					<g>
						<g>
							<path class="st6" d="M573.7,647.9l-0.9,0c-0.2,0-19.8-0.6-40.3-10.7l-0.9-0.4l0.5-0.9c0.7-1.3,16.5-32.1,31.8-30.5
								c2.5,0.3,4.6,1.5,6.3,3.6c7.7,9.9,3.8,37,3.6,38.1L573.7,647.9z M534.4,635.8c17.3,8.3,33.7,9.8,37.6,10
								c0.6-4.8,3.1-27.5-3.4-35.7c-1.3-1.7-2.9-2.7-4.9-2.9c-0.3,0-0.6,0-1,0C550.5,607.2,537,630.9,534.4,635.8z"/>
						</g>
					</g>
				</g>
				<g>
					<g>
						<path class="st6" d="M572.9,653.8c-0.1,0-0.1,0-0.2,0c-0.9,0-21.1-0.7-42.7-11.3c-1.7-0.8-2.9-2.3-3.5-4
							c-0.6-1.8-0.4-3.7,0.4-5.3c3-6,19.1-35.7,37.7-33.7c4.1,0.4,7.7,2.5,10.3,5.9c8.9,11.4,5.6,37.5,4.8,42.6
							C579.2,651.3,576.3,653.8,572.9,653.8z M542.8,633c9.5,3.8,18.3,5.5,23.9,6.3c0.7-9.7,0.3-21.5-2.8-25.5
							c-0.4-0.6-0.6-0.6-0.8-0.6C558.3,612.7,549.4,622.3,542.8,633z"/>
					</g>
				</g>
				<g>
					<g>
						<path class="st6" d="M635.2,623.1c-3.5,0-6.5-2.6-6.9-6.1c0-0.4-4.9-40-10.2-61c-0.9-3.7,1.3-7.5,5-8.4c3.7-0.9,7.5,1.3,8.4,5
							c5.5,21.9,10.3,61,10.5,62.7c0.5,3.8-2.2,7.3-6.1,7.7C635.8,623.1,635.5,623.1,635.2,623.1z"/>
					</g>
				</g>
				<g>
					<g>
						<path class="st9" d="M589.7,564.6c6.9,7,24.8-8.3,34.9-9.4c10.1-1.2,25.8,1.8,32.2-8.5c6.4-10.3-13.9-26.1-37.8-22.1
							C592.5,528.9,581.6,556.2,589.7,564.6z"/>
					</g>
				</g>
				<g>
					<g>
						<path class="st0" d="M395.1,224.7l-13.4,43.3c-2,1.9-3.7,3.8-5.2,5.8c-11.8,15.4-11.6,35.5-24.8,86
							c-18,69-68.6,50.7-84.8,23.6c-1.9-3.2-3.7-6.5-5.3-10c-3.1-6.5-5.6-13.5-7.5-20.8c-11.4-42.5-3.4-95.2,35.1-124.7
							c38.7-29.8,84.6-13.2,100.2-6h0C393.1,223.6,395.1,224.7,395.1,224.7z"/>
					</g>
				</g>
				<g class="st2">
					<g>
						<path class="st3" d="M389.6,221.9c-3.7,1-71.1-8.3-103,35c-27.5,37.4-25.8,80.8-24.8,116.5c-3.1-6.5-5.6-13.5-7.5-20.8
							c-11.4-42.5-3.4-95.2,35.1-124.7C328,198.1,373.9,214.7,389.6,221.9z"/>
					</g>
				</g>
				<g class="st4">
					<g>
						<path class="st6" d="M376.6,273.8c-11.8,15.4-11.6,35.5-24.8,86c-18,69-68.6,50.7-84.8,23.6c-5.5-9.2-9.8-19.6-12.8-30.8
							c48.5,38.8,74.3-45.2,87.8-68.6C357.4,257.3,376.6,273.8,376.6,273.8z"/>
					</g>
				</g>
				<g>
					<g>
						<path class="st6" d="M393.9,226.9c-10.6-1.2-20.2-3.5-29.8-5.4c-9.6-1.7-19.2-3-28.7-2.7c-9.5,0.3-18.9,2.5-27.4,6.6
							c-4.3,2-8.4,4.4-12.2,7.2c-2,1.3-3.8,2.9-5.6,4.4c-0.9,0.8-1.8,1.6-2.7,2.4c-0.9,0.8-1.8,1.6-2.6,2.5
							c-13.5,13.6-22.2,31.8-25.7,51.1c-3.6,19.2-2.6,39.5,2.5,58.5c1.3,4.7,2.8,9.4,4.7,13.9c1.9,4.5,3.9,8.9,6.4,13.1
							c0.6,1.1,1.2,2,1.8,2.9c0.6,0.9,1.3,1.8,2,2.7c1.4,1.7,2.9,3.4,4.6,4.9c3.3,3.1,7,5.6,11,7.5c7.9,3.9,16.8,4.9,24.4,2.1
							c7.7-2.7,14.1-9.3,18.7-17.3c2.4-4,4.3-8.4,6-12.9c0.8-2.3,1.6-4.6,2.2-7l1-3.5l1-3.7c2.6-10,4.9-20,7.1-30.1l3.3-15.3
							c1.2-5.2,1.9-10.4,3.3-15.7c1.3-5.3,3.4-10.8,6.8-15.8c3.4-5,8.2-9.1,14.1-10.8c1.5-0.4,3.1,0.4,3.5,1.9
							c0.2,0.5,0.1,1.1,0,1.6l0,0.1c-1.6,5.5-3.2,9.7-4.6,14c-1.5,4.2-2.7,8.7-4.2,13.4c-1.5,4.6-2.9,9.6-4,14.6l-3.3,15.3
							c-2.2,10.2-4.6,20.5-7.2,30.7l-1,3.8l-1.1,4c-0.7,2.7-1.7,5.3-2.6,7.9c-2,5.2-4.1,10.4-7.1,15.4c-2.9,5-6.5,9.8-10.9,14
							c-4.4,4.2-9.8,7.7-15.7,9.9c-6,2.2-12.5,2.9-18.6,2.3c-6.2-0.6-12.1-2.4-17.5-5c-5.4-2.6-10.3-6-14.7-10.1
							c-2.2-2-4.2-4.2-6.1-6.5c-0.9-1.2-1.8-2.4-2.7-3.6c-0.8-1.3-1.7-2.6-2.3-3.8c-2.8-4.8-5.2-9.8-7.3-14.9
							c-2.1-5.1-3.9-10.3-5.3-15.6c-5.8-21.2-6.9-43.6-2.8-65.3c1-5.4,2.5-10.8,4.1-16.1c1.8-5.3,3.9-10.4,6.3-15.4
							c5-10,11.5-19.3,19.4-27.3c1-1,2-2,3-2.9c1-0.9,2.1-1.9,3.1-2.8c2.2-1.8,4.3-3.6,6.6-5.2c4.6-3.4,9.5-6.2,14.7-8.6
							c5.1-2.4,10.6-4.3,16.1-5.7c5.5-1.4,11.1-2.3,16.7-2.8c11.3-1,22.6,0,33.3,3c5.3,1.5,10.6,3.4,15.4,6.1c2.4,1.3,4.8,2.8,7,4.5
							c2.2,1.7,4.3,3.5,6.3,5.8c1,1.1,0.8,2.8-0.3,3.8c-0.6,0.5-1.3,0.7-2,0.6L393.9,226.9z"/>
					</g>
				</g>
				<g>
					<g>
						<path class="st0" d="M773.3,231.8c0,0.2-0.1,0.4-0.1,0.6c-1.6,12.2-5.7,23-10.9,31.6c-7.5,12.4-17.2,20.1-24.3,20
							c-20.5-0.4-44.5-59.3-47.5-73.4l-21.9-4.7l-61.3-13.3c0,0,8.3-7.5,21.3-16.6c11.5-8,26.7-17.3,43-23.6
							c27.3-10.7,57.7-13.3,79.3,11.5C770.9,186.9,775.8,211.1,773.3,231.8z"/>
					</g>
				</g>
				<g class="st2">
					<g>
						<path class="st3" d="M773.3,231.8c0,0.2-0.1,0.4-0.1,0.6c-28.1-58.7-70.1-76.1-101.6-80c27.3-10.7,57.7-13.3,79.3,11.5
							C770.9,186.9,775.8,211.1,773.3,231.8z"/>
					</g>
				</g>
				<g class="st4">
					<g>
						<path class="st6" d="M775.6,287.9c-9.9,8.7-24.7,17.5-42.9,15.2c-27.3-3.4-66.5-59.1-64.2-97.2c0.4-5.6,1.6-10.9,3.9-15.5
							c1.5-3,3.4-5.7,5.9-8.1c28.9-28.6,58.5,81.2,94.9,49.5c-1.5,12.4-5.7,23.5-11,32.3c2.4,3.7,4.6,7.3,6.7,11
							C771.3,279.4,773.6,283.7,775.6,287.9z"/>
					</g>
				</g>
				<g>
					<g>
						<path class="st6" d="M615.7,167.5c3.5-2.7,6.7-5,10.1-7.3c3.4-2.2,6.8-4.4,10.4-6.4c7-4.1,14.4-7.7,22-10.9
							c7.6-3.1,15.5-5.7,23.8-7.3c8.2-1.7,16.8-2.4,25.5-1.7c8.6,0.7,17.3,2.8,25.3,6.7c8,3.8,15.1,9.2,21,15.4
							c3.1,3.1,5.6,6.3,8.2,9.7c1.2,1.7,2.5,3.4,3.7,5.1l3.4,5.4c4.2,7.3,7.6,15.3,9.7,23.6c4.2,16.6,3.6,34.4-1.7,50.6
							c-2.6,8.1-6.3,16-11.4,23.1c-2.5,3.6-5.4,7-8.9,10.1c-1.7,1.6-3.6,3-5.8,4.4c-1.1,0.7-2.3,1.3-3.4,1.9l-2,0.8l-1,0.4l-1.1,0.3
							c-0.7,0.2-1.5,0.4-2.3,0.5c-0.8,0.1-1.7,0.2-2.5,0.2c-0.9,0.1-1.7,0-2.5-0.1c-0.8-0.1-1.7-0.2-2.4-0.4
							c-3.2-0.7-5.5-2.1-7.8-3.5c-4.3-2.9-7.4-6.2-10.2-9.6c-2.8-3.4-5.1-6.9-7.3-10.4c-2.2-3.5-4.1-7.1-5.8-10.8
							c-3.6-7.3-6.5-14.8-9-22.4c-1.3-3.8-2.4-7.7-3.4-11.6c-1-3.9-1.8-7.8-2.2-12c-0.1-1.4,0.9-2.6,2.3-2.8
							c1.1-0.1,2.2,0.6,2.6,1.6l0.1,0.1c2.8,6.9,6.5,13.9,10,20.7c3.6,6.8,7.4,13.5,11.4,19.9c2,3.2,4.1,6.3,6.2,9.3
							c2.1,3,4.5,5.8,6.8,8.4c2.3,2.6,4.8,4.8,7.1,6.2c1.1,0.6,2.2,1.2,2.9,1.2c0.2,0.1,0.3,0,0.5,0.1c0.1,0,0.3,0.1,0.4,0
							c0.1,0,0.3,0,0.4,0c0.2-0.1,0.4-0.1,0.6-0.2c1.8-0.4,4.4-2.2,6.8-4.2c2.4-2.1,4.6-4.7,6.7-7.4c2-2.8,3.9-5.7,5.5-8.9
							c0.9-1.5,1.5-3.2,2.3-4.8c0.6-1.7,1.4-3.3,1.9-5c4.7-13.5,5.2-28.3,1.7-42c-1.8-6.9-4.6-13.5-8.2-19.8l-2.9-4.6
							c-1-1.5-2.1-3-3.2-4.4c-2.2-2.9-4.5-5.8-7-8.2c-4.9-5.1-10.5-9.3-16.7-12.2c-6.2-3-12.9-4.7-19.9-5.2c-14-1.1-28.6,2.4-42.3,8
							c-6.9,2.8-13.6,6.2-20.1,9.9c-3.3,1.9-6.4,3.9-9.6,6c-3.1,2.1-6.3,4.3-9,6.4l-0.2,0.1c-3.3,2.6-8,2-10.6-1.3
							C611.9,174.9,612.4,170.1,615.7,167.5z"/>
					</g>
				</g>
				<g>
					<g>
						<g>
							
								<ellipse transform="matrix(1 -5.477934e-03 5.477934e-03 1 -2.8089 2.7821)" class="st6" cx="506.5" cy="514.2" rx="27.4" ry="38.9"/>
						</g>
						<g>
							<path class="st6" d="M506.6,553.8c-7.5,0-14.6-4.1-20-11.6c-5.3-7.5-8.3-17.4-8.3-27.9c-0.1-21.9,12.4-39.8,28-39.9
								c0,0,0.1,0,0.1,0c15.5,0,28.2,17.7,28.3,39.5c0.1,21.9-12.4,39.8-28,39.9C506.6,553.8,506.6,553.8,506.6,553.8z M506.4,476
								c0,0-0.1,0-0.1,0c-14.7,0.1-26.6,17.3-26.4,38.3c0.1,10.2,2.9,19.8,8,27c5,7.1,11.7,11,18.7,11c0,0,0.1,0,0.1,0
								c14.7-0.1,26.6-17.3,26.4-38.3C533,493,521,476,506.4,476z"/>
						</g>
					</g>
					<g>
						<g>
							
								<ellipse transform="matrix(1 -5.480654e-03 5.480654e-03 1 -2.7605 2.8215)" class="st3" cx="513.4" cy="505.1" rx="8.3" ry="13.1"/>
						</g>
						<g>
							<path class="st6" d="M513.5,518.9c-5,0-9.1-6.2-9.1-13.8c0-7.6,4-13.9,9-13.9c0,0,0,0,0,0c2.5,0,4.8,1.5,6.5,4.2
								c1.7,2.6,2.6,6,2.6,9.6l0,0c0,3.6-0.9,7.1-2.5,9.7C518.3,517.4,516,518.9,513.5,518.9C513.5,518.9,513.5,518.9,513.5,518.9z
								 M513.4,492.8C513.4,492.8,513.4,492.8,513.4,492.8c-4.2,0-7.5,5.6-7.5,12.3c0,6.8,3.4,12.2,7.5,12.2c0,0,0,0,0,0
								c1.9,0,3.8-1.3,5.2-3.5c1.5-2.4,2.3-5.5,2.3-8.8l0,0c0-3.3-0.9-6.5-2.4-8.8C517.1,494,515.3,492.8,513.4,492.8z"/>
						</g>
					</g>
				</g>
				<g>
					<g>
						<g>
							
								<ellipse transform="matrix(0.9703 -0.2418 0.2418 0.9703 -89.9685 180.9034)" class="st6" cx="691.9" cy="456.9" rx="27.5" ry="39"/>
						</g>
						<g>
							<path class="st6" d="M696.6,496.1c-13.6,0-27.3-13.4-32.1-32.3c-2.6-10.3-2.1-20.6,1.2-29.1c3.3-8.6,9.2-14.4,16.6-16.2
								c15.1-3.8,31.7,10.5,37,31.7c2.6,10.3,2.1,20.6-1.2,29.1c-3.3,8.6-9.2,14.4-16.6,16.2C699.9,495.9,698.2,496.1,696.6,496.1z
								 M687.3,419.3c-1.5,0-3.1,0.2-4.6,0.6c-6.9,1.7-12.4,7.1-15.5,15.3c-3.2,8.2-3.6,18.3-1.1,28.2c5.1,20.4,20.9,34.1,35.1,30.6
								c6.9-1.7,12.4-7.1,15.5-15.3c3.2-8.2,3.6-18.3,1.1-28.2C713.2,432.2,700.2,419.3,687.3,419.3z"/>
						</g>
					</g>
					<g>
						<g>
							
								<ellipse transform="matrix(0.9703 -0.2418 0.2418 0.9703 -88.5243 178.5167)" class="st3" cx="682.9" cy="449.9" rx="8.3" ry="13.1"/>
						</g>
						<g>
							<path class="st6" d="M684.8,463.5c-4.4,0-9-4.8-10.7-11.4l0,0c-1.8-7.4,0.6-14.4,5.5-15.6c4.9-1.2,10.3,3.8,12.2,11.3
								c1.8,7.4-0.6,14.4-5.5,15.6C685.8,463.4,685.3,463.5,684.8,463.5z M681.1,437.8c-0.4,0-0.8,0-1.1,0.1c-4,1-6,7.2-4.3,13.8
								l0,0c1.6,6.6,6.2,11.1,10.3,10.1c4-1,6-7.2,4.3-13.8C688.7,442.1,684.8,437.8,681.1,437.8z"/>
						</g>
					</g>
				</g>
			</g>
			<g>
				<g>
					<g>
						<path class="st10" d="M400.4,965.8v4.6c0,12.2,7.5,23.1,18.9,27.4l172.4,66c22.8,7.3,47.4,9.7,71.8,6.9l274.2-31.5
							c25.5-2.9,43.9-23.8,40.8-46.4l0,0l-219.5-68.3L400.4,965.8z"/>
					</g>
				</g>
				<g>
					<g>
						<polygon class="st10" points="980.6,1004.4 622,1045.6 400.4,965.8 424.2,963.1 758.9,924.5 867.2,963.5 						"/>
					</g>
				</g>
				<g class="st2">
					<g>
						<polygon class="st3" points="980.6,1004.4 622,1045.6 400.4,965.8 424.2,963.1 758.9,924.5 867.2,963.5 						"/>
					</g>
				</g>
				<g class="st4">
					<g>
						<path class="st6" d="M980.6,1004.4L622,1045.6l-221.7-79.8l23.9-2.7c78.6,17.8,274.6,52.1,443,0.5L980.6,1004.4z"/>
					</g>
				</g>
				<g>
					<g>
						<path class="st6" d="M622,1053.2c-0.9,0-1.7-0.2-2.6-0.4l-221.7-79.8c-3.3-1.2-5.3-4.5-4.9-8c0.4-3.5,3.2-6.2,6.6-6.6
							L758.1,917c1.2-0.1,2.3,0,3.4,0.4l221.7,79.8c3.3,1.2,5.3,4.5,4.9,8c-0.4,3.5-3.2,6.2-6.6,6.6l-358.6,41.3
							C622.6,1053.2,622.3,1053.2,622,1053.2z M433.3,969.6l189.7,68.3l324.8-37.4L758,932.2L433.3,969.6z"/>
					</g>
				</g>
				<g>
					<g>
						<path class="st6" d="M643.7,1079.5c-18.5,0-37-2.8-54.3-8.4c-0.1,0-0.3-0.1-0.4-0.1l-172.4-66c-14.2-5.4-23.7-19.3-23.7-34.5
							v-4.6c0-3.8,2.9-7.1,6.7-7.5L758.1,917c1-0.1,2.1,0,3.1,0.3l219.5,68.3c2.8,0.9,4.9,3.3,5.2,6.2c1.6,12-1.8,24.2-9.6,34.2
							c-8.9,11.4-22.7,19-37.9,20.7l-274.2,31.5C657.5,1079.1,650.6,1079.5,643.7,1079.5z M594.2,1056.8c21.7,6.9,45.3,9.2,68.4,6.5
							l274.2-31.5c11.2-1.3,21.3-6.7,27.7-15c4.3-5.5,6.6-11.8,6.8-18.3l-213-66.3L408,972.5c0.8,8.1,6.2,15.3,13.9,18.3
							L594.2,1056.8z"/>
					</g>
				</g>
				<g>
					<g>
						<path class="st10" d="M979.8,1004.5l-356.8,41l68.3-245.2c2.2-8,9.1-13.9,17.4-14.8l313-36c14.4-1.7,25.9,11.8,22,25.8
							L979.8,1004.5z"/>
					</g>
				</g>
				<g class="st4">
					<g>
						<path class="st6" d="M1043.7,774.9l-63.9,229.2L623,1045.2l6.8-24.5l313.7-36.1c12.9-1.5,23.5-10.6,27-23.1l58.1-208.6
							c0.3-1.1,0.5-2.2,0.6-3.3C1039.8,752.5,1046.9,763.5,1043.7,774.9z"/>
					</g>
				</g>
				<g class="st2">
					<g>
						<path class="st3" d="M1042.5,767c-1.7-0.2-3.5-0.3-5.3-0.1l-312.9,36c-8.3,1-15.1,6.8-17.4,14.8l-62.2,223.1l-23.7,2.7
							l68.3-245.2c2.2-8,9.1-13.9,17.4-14.8l313-36C1031.9,746.1,1042,755.5,1042.5,767z"/>
					</g>
				</g>
				<g>
					<g>
						<path class="st6" d="M623,1053.1c-2.2,0-4.3-1-5.7-2.6c-1.6-1.9-2.2-4.5-1.5-6.9l68.3-245.2c3.1-11,12.4-19,23.8-20.3l313-36
							c9.3-1.1,18.4,2.5,24.5,9.6c6.1,7.1,8.2,16.7,5.7,25.7l-63.9,229.2c-0.8,3-3.4,5.1-6.4,5.5l-356.8,41
							C623.6,1053.1,623.3,1053.1,623,1053.1z M1024.1,756.9c-0.5,0-1,0-1.5,0.1l-313,36c-5.2,0.6-9.5,4.3-10.9,9.3l-65.3,234.4
							l340.6-39.2l62.5-224.3c1.2-4.2,0.2-8.5-2.6-11.8C1031.3,758.5,1027.8,756.9,1024.1,756.9z M979.8,1004.5L979.8,1004.5
							L979.8,1004.5z"/>
					</g>
				</g>
				<g>
					<g>
						<g>
							
								<ellipse transform="matrix(0.8783 -0.478 0.478 0.8783 -332.9777 498.8042)" class="st3" cx="813.5" cy="903.6" rx="12.4" ry="12.4"/>
						</g>
					</g>
					<g>
						<g>
							
								<ellipse transform="matrix(0.8943 -0.4474 0.4474 0.8943 -325.797 462.215)" class="st3" cx="815.6" cy="920.8" rx="10.8" ry="10.8"/>
						</g>
					</g>
					<g>
						<g>
							
								<ellipse transform="matrix(0.999 -4.386054e-02 4.386054e-02 0.999 -38.3843 39.7829)" class="st3" cx="887.4" cy="894.6" rx="12.4" ry="12.4"/>
						</g>
					</g>
					<g>
						<g>
							
								<ellipse transform="matrix(0.8641 -0.5034 0.5034 0.8641 -338.749 571.4138)" class="st3" cx="888.6" cy="912.9" rx="10.5" ry="10.5"/>
						</g>
					</g>
					<g>
						<g>
							
								<rect x="814.4" y="900.8" transform="matrix(0.9927 -0.1208 0.1208 0.9927 -103.5884 109.1639)" class="st3" width="68" height="16"/>
						</g>
					</g>
				</g>
				<g class="st4">
					<g>
						<polygon class="st6" points="622.9,1046.5 611,1066.3 630.3,1071.9 949.6,1036.4 967.5,1024.7 972.8,1005.4 						"/>
					</g>
				</g>
			</g>
		</g>
	</g>
	<g>
		<g>
			<g>
				<path class="st3" d="M188.2,874.3c-3.1-7.9,2.7-17.5,12.9-21.5c10.2-4,21-0.9,24.1,7c3.1,7.9-2.7,17.5-12.9,21.5
					C202.1,885.2,191.3,882.1,188.2,874.3z"/>
			</g>
		</g>
		<g>
			<g>
				
					<ellipse transform="matrix(0.3952 -0.9186 0.9186 0.3952 -640.0846 701.5291)" class="st3" cx="212.7" cy="836.9" rx="4.5" ry="6.3"/>
			</g>
		</g>
		<g>
			<g>
				
					<ellipse transform="matrix(0.8371 -0.547 0.547 0.8371 -429.1577 243.9638)" class="st3" cx="195.1" cy="842.6" rx="4.8" ry="5.6"/>
			</g>
		</g>
		<g>
			<g>
				<path class="st3" d="M177,854.5c0.1-3.2,2.1-5.7,4.4-5.6c2.4,0.1,4.2,2.7,4.1,5.9c-0.1,3.2-2.1,5.7-4.4,5.6
					C178.8,860.3,177,857.7,177,854.5z"/>
			</g>
		</g>
	</g>
</g>
</svg>
